Coordinates
version=1
nRows=19
nColumns=36
inDegrees=yes

Units are S.I. units (second, meters, Newtons, ...)
If the header above contains a line with 'inDegrees', this indicates whether rotational values are in degrees (yes) or radians (no).

endheader
time	pelvis_tilt	pelvis_list	pelvis_rotation	pelvis_tx	pelvis_ty	pelvis_tz	hip_flexion_r	hip_adduction_r	hip_rotation_r	knee_angle_r	knee_angle_r_beta	ankle_angle_r	subtalar_angle_r	mtp_angle_r	hip_flexion_l	hip_adduction_l	hip_rotation_l	knee_angle_l	knee_angle_l_beta	ankle_angle_l	subtalar_angle_l	mtp_angle_l	lumbar_extension	lumbar_bending	lumbar_rotation	arm_flex_r	arm_add_r	arm_rot_r	elbow_flex_r	pro_sup_r	arm_flex_l	arm_add_l	arm_rot_l	elbow_flex_l	pro_sup_l
      2.01666670	     -9.15836912	     -5.96932370	     -2.13894768	      0.44227811	      0.91627037	     -0.18489988	     22.48579969	     -0.10871727	      0.46867523	      7.37245170	      0.12867356	      5.24245091	    -14.12469304	     -7.49999978	     10.50668013	      0.26135747	     -2.50183314	      4.89808674	      0.08548774	      6.21448241	     -9.17758226	     -7.49999978	      0.09071103	     -0.62279446	      9.77225239	     47.40627302	     15.03164970	     70.19057469	    110.08006534	     87.78581179	     32.52774538	     12.32413012	     68.25105292	    122.25793637	     81.62018029
      2.03333330	     -8.69891577	     -5.95953941	     -2.41527404	      0.44235383	      0.91679446	     -0.18479199	     21.67760222	     -0.13734607	      0.38312002	      7.17437059	      0.12521639	      5.10658446	    -14.34154443	     -7.49999979	      9.71395179	      0.34694116	     -2.70928232	      4.70853871	      0.08217950	      6.49227633	     -9.04967512	     -7.49999979	     -0.31264341	     -0.54489669	     10.04386906	     47.36532926	     14.87942861	     70.31728356	    110.54301393	     87.42761090	     32.18891937	     12.54314835	     68.38661931	    122.20365056	     81.45402742
      2.05000000	     -8.69161823	     -5.92527440	     -2.69735115	      0.44203919	      0.91675532	     -0.18439841	     21.42481895	     -0.10998356	      0.50452074	      6.98715403	      0.12194884	      4.87131143	    -14.64424154	     -7.49999981	      9.46783629	      0.38419393	     -2.81203296	      4.50796901	      0.07867890	      6.61209449	     -8.93701193	     -7.49999981	     -0.15465159	     -0.53735287	     10.32524226	     47.09145296	     14.74050676	     69.96726194	    110.66080766	     92.70591550	     31.90094530	     12.78301784	     68.13709884	    121.80121471	     86.87719075
      2.06666670	     -8.54472219	     -5.91203142	     -2.83886787	      0.44223854	      0.91680501	     -0.18428343	     21.07393937	     -0.13322659	      0.33788853	      6.89257196	      0.12029807	      5.02317209	    -14.33448155	     -7.49999981	      9.11295478	      0.41692909	     -2.87138088	      4.37198222	      0.07630548	      6.65283042	     -8.87579287	     -7.49999981	     -0.21866000	     -0.47273991	     10.37730602	     47.17043167	     14.70578622	     70.08996844	    110.74445351	     91.61340957	     31.89412674	     12.86229761	     67.94901572	    121.72859131	     85.91647934
      2.08333330	     -8.45561902	     -5.87164373	     -2.96420753	      0.44188129	      0.91905227	     -0.18377912	     20.81859051	     -0.17094848	      0.36152147	      6.72702569	      0.11740875	      5.01707888	    -14.37522506	     -7.49999983	      8.88343977	      0.45792290	     -2.68657726	      4.23750221	      0.07395837	      6.38998955	     -9.29013606	     -7.49999983	     -0.29280089	     -0.48438542	     10.43606451	     47.20619832	     14.70187174	     70.05945103	    110.59968409	     93.02232583	     31.97608217	     12.97840217	     67.74176502	    121.49945626	     87.03223688
      2.10000000	     -8.33857132	     -5.79004900	     -3.07879376	      0.44203124	      0.91878908	     -0.18363406	     20.65592751	     -0.27090700	      0.29358235	      6.56578002	      0.11459448	      5.19198055	    -14.05017129	     -7.49999984	      8.65356178	      0.50837113	     -2.70925818	      4.12771349	      0.07204219	      6.49227471	     -9.16238625	     -7.49999984	     -0.34335361	     -0.52441168	     10.44247708	     47.22896033	     14.79113110	     70.36916066	    110.40854128	     90.78925159	     32.01998560	     12.85923095	     67.51312818	    121.49847742	     84.92634546
      2.11666670	     -8.24899302	     -5.76458479	     -3.14928535	      0.44171684	      0.91877625	     -0.18336012	     20.52035210	     -0.33024665	      0.41352852	      6.27057941	      0.10944226	      5.01560208	    -14.27620516	     -7.49999984	      8.49099898	      0.50971751	     -2.60119086	      3.99896221	      0.06979506	      6.36945402	     -9.48315523	     -7.49999984	     -0.38904172	     -0.53077522	     10.45758448	     47.16623825	     14.76699772	     70.31678317	    110.15320455	     90.77078615	     32.04262835	     12.76943639	     67.23417187	    121.43723555	     84.78614073
      2.13333330	     -8.59802188	     -5.65524482	     -3.30071062	      0.44216728	      0.91815594	     -0.18334652	     21.00018001	     -0.44427489	      0.26336407	      6.28511680	      0.10969598	      5.19864724	    -13.75979630	     -7.49999984	      8.82186821	      0.56345467	     -2.63610868	      3.96184989	      0.06914733	      6.50806926	     -9.20806676	     -7.49999984	      0.20249311	     -0.54513450	     10.53125825	     46.77317732	     14.71848107	     70.32727780	    109.79581270	     89.47704117	     31.66060427	     12.40252080	     66.87357939	    121.21668642	     83.58289873
      2.15000000	     -8.27847423	     -5.65318052	     -3.37153871	      0.44164317	      0.91864713	     -0.18323057	     20.83193940	     -0.46723748	      0.57240914	      6.11174501	      0.10667007	      4.84412194	    -14.33713510	     -7.49999985	      8.46225123	      0.58659651	     -2.42171906	      3.83687031	      0.06696602	      6.08356033	     -9.91607807	     -7.49999985	     -0.40895640	     -0.61909797	     10.47418612	     47.00945618	     14.76145549	     70.12205667	    110.03773819	     93.09038263	     31.75105702	     12.37310585	     66.52725416	    121.47234073	     86.47529425
      2.16666670	     -8.19007484	     -5.58249289	     -3.42466023	      0.44185288	      0.91837765	     -0.18321774	     20.85308721	     -0.56163804	      0.72244942	      5.93004429	      0.10349880	      4.62327330	    -14.47349038	     -7.49999986	      8.30627914	      0.62117740	     -2.36330759	      3.78578836	      0.06607447	      6.08991654	     -9.81286835	     -7.49999986	     -0.56411559	     -0.72079676	     10.40306350	     47.05702843	     14.69504255	     70.00760654	    110.14629644	     91.33376606	     31.83955152	     12.30356766	     66.25005632	    121.48557015	     84.85081749
      2.18333330	     -8.18563525	     -5.52733481	     -3.50404657	      0.44149889	      0.91839425	     -0.18299536	     21.12427895	     -0.63909078	      0.65264719	      6.08396246	      0.10618518	      4.43949630	    -14.48880029	     -7.49999986	      8.25660280	      0.62561270	     -2.26814618	      3.73456759	      0.06518050	      6.15978135	     -9.90012701	     -7.49999986	     -0.66793818	     -0.80903997	     10.25744390	     46.83349802	     14.68126073	     69.62963379	    110.28789271	     93.55564146	     31.89822447	     12.29752474	     65.87849698	    121.58408740	     86.42508336
      2.20000000	     -8.14723389	     -5.45121666	     -3.60662985	      0.44169038	      0.91815948	     -0.18287987	     21.55217622	     -0.73633516	      0.67293729	      6.37043421	      0.11118505	      4.24869562	    -14.78056258	     -7.49999986	      8.16430587	      0.66558612	     -2.14882267	      3.66351941	      0.06394048	      6.28993749	    -10.06387825	     -7.49999986	     -0.81179547	     -0.89335366	     10.18626811	     46.67532907	     14.72805199	     69.44060198	    110.37004012	     93.45412407	     31.84642996	     12.15976403	     65.69207301	    122.01011994	     86.09984779
      2.21666670	     -8.07704638	     -5.39736138	     -3.64518517	      0.44138045	      0.91612274	     -0.18296766	     21.83288429	     -0.82721226	      0.69223714	      6.54488577	      0.11422981	      4.06616113	    -14.92308335	     -7.49999986	      8.08408978	      0.72087730	     -2.03305569	      3.62712313	      0.06330524	      6.31268905	    -10.27293867	     -7.49999986	     -1.04963119	     -0.96737698	     10.08844355	     46.62393781	     14.80271317	     69.34408515	    110.54858683	     91.97439883	     31.91283245	     12.18037810	     65.76221418	    122.25392622	     84.71026380
      2.23333330	     -8.17267075	     -5.22428058	     -3.68147481	      0.43317309	      0.91461680	     -0.18360103	     22.53026008	     -1.10633796	      0.60743439	      6.59263337	      0.11506316	      3.83947626	    -14.88123344	     -7.49999986	      8.44622573	      0.92690456	     -2.06056361	      3.71125140	      0.06477356	      6.44207072	    -10.44012095	     -7.49999986	     -1.29236174	     -1.16308481	     10.03936673	     47.02592406	     14.79259262	     68.94792122	    110.65489287	     92.03953279	     32.48746035	     12.25211043	     65.36869010	    122.27226568	     84.77498521
      2.25000000	     -8.40108799	     -5.04587809	     -3.67751729	      0.43282634	      0.91463685	     -0.18348684	     23.55095273	     -1.41301502	      0.48472596	      7.03376406	      0.12276234	      3.70218336	    -14.83884221	     -7.49999987	      9.07206144	      1.10540903	     -2.05874603	      4.10021709	      0.07156229	      6.35180616	    -10.79529434	     -7.49999987	     -1.40279254	     -1.43041690	      9.84636404	     47.00517316	     14.67612127	     68.49413907	    110.91679630	     91.18527010	     33.13286542	     12.27843725	     65.13810497	    122.14012508	     84.01436095
      2.26666670	     -8.43936194	     -4.94190493	     -3.59280718	      0.43309602	      0.91473491	     -0.18358938	     24.35163891	     -1.69639870	      0.31095977	      7.70020163	      0.13439387	      3.45286906	    -14.94638297	     -7.49999987	      9.46028977	      1.22652484	     -2.03621112	      4.46396085	      0.07791081	      6.25115673	    -11.06660552	     -7.49999987	     -1.78398483	     -1.59524007	      9.79096407	     47.15722488	     14.63917861	     68.12455684	    111.04033352	     91.39588153	     33.64024560	     12.28970004	     65.06589869	    122.00455433	     84.17413889
      2.28333330	     -8.70534281	     -4.79801064	     -3.65549141	      0.42867366	      0.91384113	     -0.18114304	     25.64481521	     -1.96940152	      0.18162217	      8.48355824	      0.14806602	      3.24400187	    -15.00475192	     -7.49999987	     10.23576908	      1.32070419	     -2.07562399	      4.99316556	      0.08714718	      6.02333684	    -11.73029717	     -7.49999987	     -1.99465985	     -1.93474671	     10.33133085	     47.65897430	     14.58986504	     67.80892242	    111.23168859	     91.33336761	     34.50799107	     12.39317815	     65.49996833	    121.75487044	     83.90108763
      2.30000000	     -8.76433373	     -4.74114212	     -3.51518802	      0.42910160	      0.91361151	     -0.18122232	     26.70042821	     -2.21099319	     -0.02786221	      9.45289853	      0.16498420	      3.15185037	    -14.91799114	     -7.49999987	     10.76088332	      1.34002618	     -2.05282706	      5.52133643	      0.09636550	      6.01739182	    -11.84733489	     -7.49999987	     -2.41752265	     -2.11702182	     10.35641275	     47.90623128	     14.72997989	     67.64093738	    111.23608948	     91.52148036	     34.90123122	     12.16531322	     65.82772091	    122.00031570	     84.06519297
      2.31666670	     -9.23411178	     -4.62739422	     -3.43971385	      0.42500513	      0.91010881	     -0.18433372	     28.32724658	     -2.55818478	     -0.38343044	     10.30937829	      0.17993259	      3.29526155	    -14.61402300	     -7.49999987	     11.86850798	      1.48080105	     -2.04481776	      6.25828224	      0.10922763	      5.92949198	    -12.45880493	     -7.49999987	     -2.39411711	     -2.20937637	     10.45827294	     48.18094906	     14.65826176	     67.42737897	    111.47272661	     93.67200485	     35.50559367	     12.14308440	     65.78552290	    121.73405041	     85.67142300
